<svg id="SvgjsSvg7913" width="20" height="20" xmlns="http://www.w3.org/2000/svg" version="1.1" xmlns:xlink="http://www.w3.org/1999/xlink" xmlns:svgjs="http://svgjs.com/svgjs" viewBox="0.0001220703125 0 19.999755859375 20" fill="#2baaec" opacity="1"><defs id="SvgjsDefs7914"></defs><svg version="1.1" xmlns="http://www.w3.org/2000/svg" xmlns:xlink="http://www.w3.org/1999/xlink" width="20" height="20" viewBox="0 -0.00010252 19.9997 19.9999"><g><path fill="#2baaec" stroke="none" paint-order="stroke fill markers" fill-rule="evenodd" d=" M 0 9.999744892120361 C 0 4.479198455810547 4.4702911376953125 -0.00010251998901367188 9.989891052246094 -0.00010251998901367188 C 15.519561767578125 -0.00010251998901367188 19.99969482421875 4.479198455810547 19.99969482421875 9.999744892120361 C 19.99969482421875 15.51948070526123 15.519561767578125 19.999794960021973 9.989891052246094 19.999794960021973 C 4.4702911376953125 19.999794960021973 0 15.51948070526123 0 9.999744892120361 Z M 1.9997406005859375 9.999744892120361 C 1.9997406005859375 14.419667720794678 5.5799102783203125 17.999987602233887 9.999847412109375 17.999987602233887 C 14.419784545898438 17.999987602233887 17.999954223632812 14.419667720794678 17.999954223632812 9.999744892120361 C 17.999954223632812 5.579822063446045 14.419784545898438 1.9997048377990723 9.999847412109375 1.9997048377990723 C 5.5799102783203125 1.9997048377990723 1.9997406005859375 5.579822063446045 1.9997406005859375 9.999744892120361 Z M 8.999977111816406 10.999648571014404 C 8.999977111816406 10.999648571014404 8.999977111816406 4.999415874481201 8.999977111816406 4.999415874481201 C 8.999977111816406 4.999415874481201 10.500297546386719 4.999415874481201 10.500297546386719 4.999415874481201 C 10.500297546386719 4.999415874481201 10.500297546386719 10.250024795532227 10.500297546386719 10.250024795532227 C 10.500297546386719 10.250024795532227 15.000228881835938 12.91940689086914 15.000228881835938 12.91940689086914 C 15.000228881835938 12.91940689086914 14.249610900878906 14.149730205535889 14.249610900878906 14.149730205535889 C 14.249610900878906 14.149730205535889 8.999977111816406 10.999648571014404 8.999977111816406 10.999648571014404 Z"></path></g></svg></svg>