<svg id="SvgjsSvg16096" width="10" height="16" xmlns="http://www.w3.org/2000/svg" version="1.1" xmlns:xlink="http://www.w3.org/1999/xlink" xmlns:svgjs="http://svgjs.com/svgjs" viewBox="0.875 0 8.25 16"  opacity="1"><defs id="SvgjsDefs16097"></defs><svg version="1.1" xmlns="http://www.w3.org/2000/svg" xmlns:xlink="http://www.w3.org/1999/xlink" width="10" height="16" viewBox="0.991974 -0.0000925064 8.25005 16.0001"><g><path  stroke="none" paint-order="stroke fill markers" fill-rule="evenodd" d=" M 6.3269805908203125 4.040863990783691 C 6.3269805908203125 4.040863990783691 6.3269805908203125 5.999937534332275 6.3269805908203125 5.999937534332275 C 6.3269805908203125 5.999937534332275 8.991966247558594 5.999937534332275 8.991966247558594 5.999937534332275 C 8.991966247558594 5.999937534332275 8.625984191894531 8.843806266784668 8.625984191894531 8.843806266784668 C 8.625984191894531 8.843806266784668 6.3269805908203125 8.843806266784668 6.3269805908203125 8.843806266784668 C 6.3269805908203125 8.843806266784668 6.3269805908203125 15.999987602233887 6.3269805908203125 15.999987602233887 C 6.3269805908203125 15.999987602233887 3.3890533447265625 15.999987602233887 3.3890533447265625 15.999987602233887 C 3.3890533447265625 15.999987602233887 3.3890533447265625 8.843806266784668 3.3890533447265625 8.843806266784668 C 3.3890533447265625 8.843806266784668 0.991973876953125 8.843806266784668 0.991973876953125 8.843806266784668 C 0.991973876953125 8.843806266784668 0.991973876953125 5.999937534332275 0.991973876953125 5.999937534332275 C 0.991973876953125 5.999937534332275 3.3890533447265625 5.999937534332275 3.3890533447265625 5.999937534332275 C 3.3890533447265625 5.999937534332275 3.3890533447265625 3.758969783782959 3.3890533447265625 3.758969783782959 C 3.3890533447265625 1.3248710632324219 4.875984191894531 -0.00009250640869140625 7.0479583740234375 -0.00009250640869140625 C 8.089027404785156 -0.00009250640869140625 8.983039855957031 0.07792997360229492 9.242019653320312 0.11197614669799805 C 9.242019653320312 0.11197614669799805 9.242019653320312 2.655914306640625 9.242019653320312 2.655914306640625 C 9.242019653320312 2.655914306640625 7.7359771728515625 2.655914306640625 7.7359771728515625 2.655914306640625 C 6.5549468994140625 2.655914306640625 6.3269805908203125 3.2188920974731445 6.3269805908203125 4.040863990783691 Z"></path></g></svg></svg>