<svg id="SvgjsSvg19701" width="21" height="12" xmlns="http://www.w3.org/2000/svg" version="1.1" xmlns:xlink="http://www.w3.org/1999/xlink" xmlns:svgjs="http://svgjs.com/svgjs" viewBox="0.90008544921875 0 19.1998291015625 11.99993896484375"  opacity="1"><defs id="SvgjsDefs19702"></defs><svg version="1.1" xmlns="http://www.w3.org/2000/svg" xmlns:xlink="http://www.w3.org/1999/xlink" width="21" height="12" viewBox="0.992088 -0.0000824928 19.2 12.0001"><g><path stroke="none" paint-order="stroke fill markers" fill-rule="evenodd" d=" M 12.755126953125 6.138969421386719 C 12.755126953125 9.568918704986572 10.454063415527344 11.999977588653564 6.9921112060546875 11.999977588653564 C 3.6771011352539062 11.999977588653564 0.9920883178710938 9.314990997314453 0.9920883178710938 5.999947547912598 C 0.9920883178710938 2.684904098510742 3.6771011352539062 -0.00008249282836914062 6.9921112060546875 -0.00008249282836914062 C 8.612136840820312 -0.00008249282836914062 9.963111877441406 0.5888352394104004 11.011161804199219 1.5719184875488281 C 11.011161804199219 1.5719184875488281 9.382095336914062 3.1347999572753906 9.382095336914062 3.1347999572753906 C 8.94012451171875 2.708817481994629 8.162155151367188 2.209878921508789 6.9921112060546875 2.209878921508789 C 4.945106506347656 2.209878921508789 3.2761001586914062 3.903878688812256 3.2761001586914062 5.999947547912598 C 3.2761001586914062 8.095813751220703 4.945106506347656 9.78981351852417 6.9921112060546875 9.78981351852417 C 9.366073608398438 9.78981351852417 10.258140563964844 8.078993320465088 10.397071838378906 7.202912330627441 C 10.397071838378906 7.202912330627441 6.9921112060546875 7.202912330627441 6.9921112060546875 7.202912330627441 C 6.9921112060546875 7.202912330627441 6.9921112060546875 5.140889644622803 6.9921112060546875 5.140889644622803 C 6.9921112060546875 5.140889644622803 12.656135559082031 5.140889644622803 12.656135559082031 5.140889644622803 C 12.714157104492188 5.442846775054932 12.755126953125 5.745817184448242 12.755126953125 6.138969421386719 Z M 20.19207000732422 5.34192419052124 C 20.19207000732422 5.34192419052124 20.19207000732422 7.091856956481934 20.19207000732422 7.091856956481934 C 20.19207000732422 7.091856956481934 18.450164794921875 7.091856956481934 18.450164794921875 7.091856956481934 C 18.450164794921875 7.091856956481934 18.450164794921875 8.832872867584229 18.450164794921875 8.832872867584229 C 18.450164794921875 8.832872867584229 16.70013427734375 8.832872867584229 16.70013427734375 8.832872867584229 C 16.70013427734375 8.832872867584229 16.70013427734375 7.091856956481934 16.70013427734375 7.091856956481934 C 16.70013427734375 7.091856956481934 14.959144592285156 7.091856956481934 14.959144592285156 7.091856956481934 C 14.959144592285156 7.091856956481934 14.959144592285156 5.34192419052124 14.959144592285156 5.34192419052124 C 14.959144592285156 5.34192419052124 16.70013427734375 5.34192419052124 16.70013427734375 5.34192419052124 C 16.70013427734375 5.34192419052124 16.70013427734375 3.5998950004577637 16.70013427734375 3.5998950004577637 C 16.70013427734375 3.5998950004577637 18.450164794921875 3.5998950004577637 18.450164794921875 3.5998950004577637 C 18.450164794921875 3.5998950004577637 18.450164794921875 5.34192419052124 18.450164794921875 5.34192419052124 C 18.450164794921875 5.34192419052124 20.19207000732422 5.34192419052124 20.19207000732422 5.34192419052124 Z"></path></g></svg></svg>