<svg id="SvgjsSvg20690" width="16" height="16" xmlns="http://www.w3.org/2000/svg" version="1.1" xmlns:xlink="http://www.w3.org/1999/xlink" xmlns:svgjs="http://svgjs.com/svgjs" viewBox="0 0.00177001953125 16 15.99652099609375"  opacity="1"><defs id="SvgjsDefs20691"></defs><svg version="1.1" xmlns="http://www.w3.org/2000/svg" xmlns:xlink="http://www.w3.org/1999/xlink" width="16" height="16" viewBox="0.991974 0.999913 14.008 14.0049"><g><path  stroke="none" paint-order="stroke fill markers" fill-rule="evenodd" d=" M 14.950447082519531 10.889413833618164 C 14.894485473632812 12.011316299438477 14.638481140136719 13.005342960357666 13.819427490234375 13.824477672576904 C 13.00048828125 14.646449565887451 12.007484436035156 14.902403831481934 10.885391235351562 14.955296993255615 C 9.728507995605469 15.021362781524658 6.263465881347656 15.021362781524658 5.106468200683594 14.955296993255615 C 3.9854049682617188 14.899363994598389 2.9944610595703125 14.643409729003906 2.1724319458007812 13.824477672576904 C 1.35040283203125 13.005342960357666 1.094512939453125 12.011316299438477 1.041412353515625 10.889413833618164 C 0.975494384765625 9.733465194702148 0.975494384765625 6.26845645904541 1.041412353515625 5.111494541168213 C 1.0974884033203125 3.989389419555664 1.35040283203125 2.9963760375976562 2.1724319458007812 2.1774439811706543 C 2.9944610595703125 1.358309268951416 3.988494873046875 1.1023550033569336 5.106468200683594 1.049461841583252 C 6.263465881347656 0.983396053314209 9.728507995605469 0.983396053314209 10.885391235351562 1.049461841583252 C 12.007484436035156 1.1053948402404785 13.00048828125 1.361349105834961 13.819427490234375 2.180483818054199 C 14.641456604003906 2.999415874481201 14.8974609375 3.992429256439209 14.950447082519531 5.1143317222595215 C 15.0164794921875 6.271496295928955 15.0164794921875 9.733465194702148 14.950447082519531 10.889413833618164 Z M 13.7384033203125 8.002379417419434 C 13.7384033203125 6.983426094055176 13.822402954101562 4.796364784240723 13.4564208984375 3.874483585357666 C 13.210487365722656 3.2584099769592285 12.738418579101562 2.7864246368408203 12.125473022460938 2.543440341949463 C 11.206512451171875 2.180483818054199 9.016456604003906 2.261343479156494 7.997474670410156 2.261343479156494 C 6.978492736816406 2.261343479156494 4.791412353515625 2.1774439811706543 3.869476318359375 2.543440341949463 C 3.2534408569335938 2.7894644737243652 2.7824020385742188 3.2614498138427734 2.5384140014648438 3.874483585357666 C 2.1754074096679688 4.793324947357178 2.2574615478515625 6.983426094055176 2.2574615478515625 8.002379417419434 C 2.2574615478515625 9.021332740783691 2.1724319458007812 11.208394050598145 2.5384140014648438 12.130477905273438 C 2.7844619750976562 12.746348857879639 3.2574462890625 13.217320919036865 3.869476318359375 13.461318492889404 C 4.7884368896484375 13.824477672576904 6.978492736816406 13.742402076721191 7.997474670410156 13.742402076721191 C 9.016456604003906 13.742402076721191 11.203422546386719 13.827314853668213 12.125473022460938 13.461318492889404 C 12.741508483886719 13.214483737945557 13.213462829589844 12.742498397827148 13.4564208984375 12.130477905273438 C 13.822402954101562 11.21143388748169 13.7384033203125 9.021332740783691 13.7384033203125 8.002379417419434 Z M 11.588401794433594 8.002379417419434 C 11.588401794433594 9.98941946029663 9.985427856445312 11.592426776885986 7.997474670410156 11.592426776885986 C 6.01043701171875 11.592426776885986 4.407463073730469 9.98941946029663 4.407463073730469 8.002379417419434 C 4.407463073730469 6.014326095581055 6.01043701171875 4.411318778991699 7.997474670410156 4.411318778991699 C 9.985427856445312 4.411318778991699 11.588401794433594 6.014326095581055 11.588401794433594 8.002379417419434 Z M 10.331497192382812 8.002379417419434 C 10.331497192382812 6.714299201965332 9.284477233886719 5.668392658233643 7.997474670410156 5.668392658233643 C 6.710472106933594 5.668392658233643 5.6634521484375 6.714299201965332 5.6634521484375 8.002379417419434 C 5.6634521484375 9.289446353912354 6.713447570800781 10.336366176605225 7.997474670410156 10.336366176605225 C 9.282417297363281 10.336366176605225 10.331497192382812 9.289446353912354 10.331497192382812 8.002379417419434 Z M 11.735458374023438 5.102375030517578 C 11.269454956054688 5.102375030517578 10.897407531738281 4.727461814880371 10.897407531738281 4.264393329620361 C 10.897407531738281 3.802338123321533 11.272430419921875 3.427424907684326 11.735458374023438 3.427424907684326 C 12.197456359863281 3.427424907684326 12.572479248046875 3.802338123321533 12.572479248046875 4.264393329620361 C 12.572479248046875 4.73029899597168 12.197456359863281 5.102375030517578 11.735458374023438 5.102375030517578 Z"></path></g></svg></svg>