<svg id="SvgjsSvg19092" width="17" height="13" xmlns="http://www.w3.org/2000/svg" version="1.1" xmlns:xlink="http://www.w3.org/1999/xlink" xmlns:svgjs="http://svgjs.com/svgjs" viewBox="0.49749755859375 0 16.0050048828125 13"  opacity="1"><defs id="SvgjsDefs19093"></defs><svg version="1.1" xmlns="http://www.w3.org/2000/svg" xmlns:xlink="http://www.w3.org/1999/xlink" width="17" height="13" viewBox="0.992027 -0.0000824928 16 12.9959"><g><path  stroke="none" paint-order="stroke fill markers" fill-rule="evenodd" d=" M 15.35699462890625 3.664947509765625 C 15.35699462890625 7.99995756149292 12.058006286621094 12.99582815170288 6.0279998779296875 12.99582815170288 C 4.1699371337890625 12.99582815170288 2.4440536499023438 12.456966400146484 0.9920272827148438 11.522925853729248 C 1.25604248046875 11.553932189941406 1.5099868774414062 11.563862323760986 1.7839584350585938 11.563862323760986 C 3.3170089721679688 11.563862323760986 4.7279510498046875 11.045874118804932 5.8549652099609375 10.16290283203125 C 4.414039611816406 10.132909774780273 3.2060012817382812 9.187925815582275 2.7889785766601562 7.888902187347412 C 2.9919967651367188 7.918895244598389 3.1950149536132812 7.938958168029785 3.407989501953125 7.938958168029785 C 3.7030181884765625 7.938958168029785 3.9970169067382812 7.898832321166992 4.2720184326171875 7.827902793884277 C 2.768951416015625 7.5229058265686035 1.6420516967773438 6.203819274902344 1.6420516967773438 4.609931468963623 C 1.6420516967773438 4.609931468963623 1.6420516967773438 4.568994998931885 1.6420516967773438 4.568994998931885 C 2.0789871215820312 4.812992572784424 2.5859603881835938 4.96498441696167 3.1239471435546875 4.98484468460083 C 2.2410354614257812 4.3959269523620605 1.6619644165039062 3.391970157623291 1.6619644165039062 2.2538552284240723 C 1.6619644165039062 1.645887851715088 1.825042724609375 1.086963176727295 2.1089706420898438 0.5999813079833984 C 3.7230453491210938 2.5888452529907227 6.148963928222656 3.8888821601867676 8.870025634765625 4.030943870544434 C 8.818984985351562 3.787959575653076 8.78900146484375 3.5338292121887207 8.78900146484375 3.2799015045166016 C 8.78900146484375 1.4728198051452637 10.250984191894531 -0.00008249282836914062 12.067962646484375 -0.00008249282836914062 C 13.013015747070312 -0.00008249282836914062 13.865028381347656 0.395906925201416 14.464012145996094 1.0358939170837402 C 15.20501708984375 0.8938322067260742 15.916038513183594 0.6198415756225586 16.545005798339844 0.24391508102416992 C 16.302047729492188 1.0059008598327637 15.783973693847656 1.645887851715088 15.103965759277344 2.050996780395508 C 15.764060974121094 1.9798645973205566 16.402984619140625 1.7968664169311523 16.99201202392578 1.5439519882202148 C 16.545005798339844 2.1928558349609375 15.986991882324219 2.771843433380127 15.347953796386719 3.2389650344848633 C 15.35699462890625 3.380824089050293 15.35699462890625 3.522885799407959 15.35699462890625 3.664947509765625 Z"></path></g></svg></svg>